<svg width="44" height="44" viewBox="0 0 44 44" fill="none" xmlns="http://www.w3.org/2000/svg">
<g clip-path="url(#clip0_931_7)">
<path d="M7.33331 12.8333C7.33331 11.8609 7.71962 10.9282 8.40725 10.2406C9.09489 9.55298 10.0275 9.16667 11 9.16667H33C33.9724 9.16667 34.9051 9.55298 35.5927 10.2406C36.2803 10.9282 36.6666 11.8609 36.6666 12.8333V34.8333C36.6666 35.8058 36.2803 36.7384 35.5927 37.4261C34.9051 38.1137 33.9724 38.5 33 38.5H11C10.0275 38.5 9.09489 38.1137 8.40725 37.4261C7.71962 36.7384 7.33331 35.8058 7.33331 34.8333V12.8333Z" stroke="#F7F7F7" stroke-width="2.75" stroke-linecap="round" stroke-linejoin="round"/>
<path d="M29.3333 5.5V12.8333" stroke="#F7F7F7" stroke-width="2.75" stroke-linecap="round" stroke-linejoin="round"/>
<path d="M14.6667 5.5V12.8333" stroke="#F7F7F7" stroke-width="2.75" stroke-linecap="round" stroke-linejoin="round"/>
<path d="M7.33331 20.1667H36.6666" stroke="#F7F7F7" stroke-width="2.75" stroke-linecap="round" stroke-linejoin="round"/>
<path d="M20.1667 29.3333C20.1667 29.8196 20.3598 30.2859 20.7037 30.6297C21.0475 30.9735 21.5138 31.1667 22 31.1667C22.4863 31.1667 22.9526 30.9735 23.2964 30.6297C23.6402 30.2859 23.8334 29.8196 23.8334 29.3333C23.8334 28.8471 23.6402 28.3808 23.2964 28.037C22.9526 27.6932 22.4863 27.5 22 27.5C21.5138 27.5 21.0475 27.6932 20.7037 28.037C20.3598 28.3808 20.1667 28.8471 20.1667 29.3333Z" stroke="#F7F7F7" stroke-width="2.75" stroke-linecap="round" stroke-linejoin="round"/>
</g>
<defs>
<clipPath id="clip0_931_7">
<rect width="44" height="44" fill="white"/>
</clipPath>
</defs>
</svg>
