<svg width="44" height="44" viewBox="0 0 44 44" fill="none" xmlns="http://www.w3.org/2000/svg">
<g clip-path="url(#clip0_931_14)">
<path d="M35.75 23.0487L22 36.6667L8.25002 23.0487C7.34308 22.1661 6.6287 21.1054 6.15186 19.9332C5.67502 18.761 5.44605 17.5027 5.47938 16.2377C5.5127 14.9727 5.80759 13.7283 6.34548 12.5828C6.88337 11.4373 7.6526 10.4156 8.60475 9.58207C9.55689 8.7485 10.6713 8.1211 11.8778 7.73939C13.0844 7.35767 14.3569 7.22991 15.6152 7.36414C16.8735 7.49837 18.0904 7.89169 19.1893 8.51933C20.2882 9.14697 21.2451 9.99534 22 11.011C22.7582 10.0027 23.7163 9.16176 24.8144 8.54078C25.9125 7.9198 27.1269 7.53216 28.3817 7.40212C29.6365 7.27209 30.9047 7.40245 32.1068 7.78506C33.3089 8.16766 34.4191 8.79427 35.3679 9.62567C36.3167 10.4571 37.0836 11.4754 37.6208 12.6168C38.158 13.7583 38.4537 14.9983 38.4896 16.2593C38.5255 17.5203 38.3007 18.7752 37.8293 19.9453C37.3579 21.1154 36.65 22.1757 35.75 23.0597" stroke="#F7F7F7" stroke-width="2.75" stroke-linecap="round" stroke-linejoin="round"/>
<path d="M22 11L15.9629 17.0372C15.6192 17.381 15.4261 17.8472 15.4261 18.3333C15.4261 18.8195 15.6192 19.2857 15.9629 19.6295L16.9584 20.625C18.2234 21.89 20.2767 21.89 21.5417 20.625L23.375 18.7917C24.4691 17.6977 25.9529 17.0831 27.5 17.0831C29.0472 17.0831 30.531 17.6977 31.625 18.7917L35.75 22.9167" stroke="#F7F7F7" stroke-width="2.75" stroke-linecap="round" stroke-linejoin="round"/>
<path d="M22.9167 28.4167L26.5834 32.0833" stroke="#F7F7F7" stroke-width="2.75" stroke-linecap="round" stroke-linejoin="round"/>
<path d="M27.5 23.8333L31.1667 27.5" stroke="#F7F7F7" stroke-width="2.75" stroke-linecap="round" stroke-linejoin="round"/>
</g>
<defs>
<clipPath id="clip0_931_14">
<rect width="44" height="44" fill="white"/>
</clipPath>
</defs>
</svg>
