<svg width="44" height="44" viewBox="0 0 44 44" fill="none" xmlns="http://www.w3.org/2000/svg">
<g clip-path="url(#clip0_412_1315)">
<path d="M7.3335 12.8337C7.3335 11.8612 7.7198 10.9286 8.40744 10.2409C9.09507 9.5533 10.0277 9.16699 11.0002 9.16699H33.0002C33.9726 9.16699 34.9053 9.5533 35.5929 10.2409C36.2805 10.9286 36.6668 11.8612 36.6668 12.8337V34.8337C36.6668 35.8061 36.2805 36.7388 35.5929 37.4264C34.9053 38.114 33.9726 38.5003 33.0002 38.5003H11.0002C10.0277 38.5003 9.09507 38.114 8.40744 37.4264C7.7198 36.7388 7.3335 35.8061 7.3335 34.8337V12.8337Z" stroke="#9E9E9E" stroke-width="2.75" stroke-linecap="round" stroke-linejoin="round"/>
<path d="M29.3335 5.5V12.8333" stroke="#9E9E9E" stroke-width="2.75" stroke-linecap="round" stroke-linejoin="round"/>
<path d="M14.6665 5.5V12.8333" stroke="#9E9E9E" stroke-width="2.75" stroke-linecap="round" stroke-linejoin="round"/>
<path d="M7.3335 20.167H36.6668" stroke="#9E9E9E" stroke-width="2.75" stroke-linecap="round" stroke-linejoin="round"/>
<path d="M20.1665 29.3333C20.1665 29.8196 20.3597 30.2859 20.7035 30.6297C21.0473 30.9735 21.5136 31.1667 21.9998 31.1667C22.4861 31.1667 22.9524 30.9735 23.2962 30.6297C23.64 30.2859 23.8332 29.8196 23.8332 29.3333C23.8332 28.8471 23.64 28.3808 23.2962 28.037C22.9524 27.6932 22.4861 27.5 21.9998 27.5C21.5136 27.5 21.0473 27.6932 20.7035 28.037C20.3597 28.3808 20.1665 28.8471 20.1665 29.3333Z" stroke="#9E9E9E" stroke-width="2.75" stroke-linecap="round" stroke-linejoin="round"/>
</g>
<defs>
<clipPath id="clip0_412_1315">
<rect width="44" height="44" fill="white"/>
</clipPath>
</defs>
</svg>
