<svg width="44" height="44" viewBox="0 0 44 44" fill="none" xmlns="http://www.w3.org/2000/svg">
<g clip-path="url(#clip0_951_96)">
<path d="M16.5 27.5C16.5 28.9587 17.0795 30.3576 18.1109 31.3891C19.1424 32.4205 20.5413 33 22 33C23.4587 33 24.8576 32.4205 25.8891 31.3891C26.9205 30.3576 27.5 28.9587 27.5 27.5C27.5 26.0413 26.9205 24.6424 25.8891 23.6109C24.8576 22.5795 23.4587 22 22 22C20.5413 22 19.1424 22.5795 18.1109 23.6109C17.0795 24.6424 16.5 26.0413 16.5 27.5Z" stroke="#646464" stroke-width="2.75" stroke-linecap="round" stroke-linejoin="round"/>
<path d="M18.3333 12.8333H25.6667" stroke="#646464" stroke-width="2.75" stroke-linecap="round" stroke-linejoin="round"/>
<path d="M18.3333 33V40.3333L22 38.5L25.6667 40.3333V33" stroke="#646464" stroke-width="2.75" stroke-linecap="round" stroke-linejoin="round"/>
<path d="M18.3333 34.8333H14.6667C13.6942 34.8333 12.7616 34.447 12.0739 33.7594C11.3863 33.0718 11 32.1391 11 31.1667V9.16667C11 8.19421 11.3863 7.26158 12.0739 6.57394C12.7616 5.88631 13.6942 5.5 14.6667 5.5H29.3333C30.3058 5.5 31.2384 5.88631 31.9261 6.57394C32.6137 7.26158 33 8.19421 33 9.16667V31.1667C33 32.1391 32.6137 33.0718 31.9261 33.7594C31.2384 34.447 30.3058 34.8333 29.3333 34.8333H25.6667" stroke="#646464" stroke-width="2.75" stroke-linecap="round" stroke-linejoin="round"/>
</g>
<defs>
<clipPath id="clip0_951_96">
<rect width="44" height="44" fill="white"/>
</clipPath>
</defs>
</svg>
