<svg width="44" height="44" viewBox="0 0 44 44" fill="none" xmlns="http://www.w3.org/2000/svg">
<g clip-path="url(#clip0_874_92)">
<path d="M38.5 25.6667L33 20.1667H20.1667C19.6804 20.1667 19.2141 19.9735 18.8703 19.6297C18.5265 19.2859 18.3333 18.8196 18.3333 18.3333V7.33333C18.3333 6.8471 18.5265 6.38079 18.8703 6.03697C19.2141 5.69315 19.6804 5.5 20.1667 5.5H36.6667C37.1529 5.5 37.6192 5.69315 37.963 6.03697C38.3069 6.38079 38.5 6.8471 38.5 7.33333V25.6667Z" stroke="#646464" stroke-width="2.75" stroke-linecap="round" stroke-linejoin="round"/>
<path d="M25.6667 27.5V31.1667C25.6667 31.6529 25.4735 32.1192 25.1297 32.463C24.7859 32.8069 24.3196 33 23.8333 33H11L5.5 38.5V20.1667C5.5 19.6804 5.69315 19.2141 6.03697 18.8703C6.38079 18.5265 6.8471 18.3333 7.33333 18.3333H11" stroke="#646464" stroke-width="2.75" stroke-linecap="round" stroke-linejoin="round"/>
</g>
<defs>
<clipPath id="clip0_874_92">
<rect width="44" height="44" fill="white"/>
</clipPath>
</defs>
</svg>
