<svg width="44" height="44" viewBox="0 0 44 44" fill="none" xmlns="http://www.w3.org/2000/svg">
<g clip-path="url(#clip0_399_1340)">
<path d="M16.5 12.833C16.5 14.2917 17.0795 15.6906 18.1109 16.7221C19.1424 17.7535 20.5413 18.333 22 18.333C23.4587 18.333 24.8576 17.7535 25.8891 16.7221C26.9205 15.6906 27.5 14.2917 27.5 12.833C27.5 11.3743 26.9205 9.97537 25.8891 8.94392C24.8576 7.91247 23.4587 7.33301 22 7.33301C20.5413 7.33301 19.1424 7.91247 18.1109 8.94392C17.0795 9.97537 16.5 11.3743 16.5 12.833Z" stroke="#9E9E9E" stroke-width="1.83333" stroke-linecap="round" stroke-linejoin="round"/>
<path d="M25.667 29.333C25.667 30.7917 26.2465 32.1906 27.2779 33.2221C28.3094 34.2535 29.7083 34.833 31.167 34.833C32.6257 34.833 34.0246 34.2535 35.0561 33.2221C36.0875 32.1906 36.667 30.7917 36.667 29.333C36.667 27.8743 36.0875 26.4754 35.0561 25.4439C34.0246 24.4125 32.6257 23.833 31.167 23.833C29.7083 23.833 28.3094 24.4125 27.2779 25.4439C26.2465 26.4754 25.667 27.8743 25.667 29.333Z" stroke="#9E9E9E" stroke-width="1.83333" stroke-linecap="round" stroke-linejoin="round"/>
<path d="M7.33301 29.333C7.33301 30.0553 7.47527 30.7705 7.75167 31.4378C8.02807 32.1051 8.4332 32.7114 8.94392 33.2221C9.45464 33.7328 10.061 34.1379 10.7282 34.4143C11.3955 34.6907 12.1107 34.833 12.833 34.833C13.5553 34.833 14.2705 34.6907 14.9378 34.4143C15.6051 34.1379 16.2114 33.7328 16.7221 33.2221C17.2328 32.7114 17.6379 32.1051 17.9143 31.4378C18.1907 30.7705 18.333 30.0553 18.333 29.333C18.333 28.6107 18.1907 27.8955 17.9143 27.2282C17.6379 26.561 17.2328 25.9546 16.7221 25.4439C16.2114 24.9332 15.6051 24.5281 14.9378 24.2517C14.2705 23.9753 13.5553 23.833 12.833 23.833C12.1107 23.833 11.3955 23.9753 10.7282 24.2517C10.061 24.5281 9.45464 24.9332 8.94392 25.4439C8.4332 25.9546 8.02807 26.561 7.75167 27.2282C7.47527 27.8955 7.33301 28.6107 7.33301 29.333Z" stroke="#9E9E9E" stroke-width="1.83333" stroke-linecap="round" stroke-linejoin="round"/>
</g>
<defs>
<clipPath id="clip0_399_1340">
<rect width="44" height="44" fill="white"/>
</clipPath>
</defs>
</svg>
