<svg width="44" height="44" viewBox="0 0 44 44" fill="none" xmlns="http://www.w3.org/2000/svg">
<g clip-path="url(#clip0_951_92)">
<path d="M14.6667 22C14.6667 23.9449 15.4393 25.8102 16.8145 27.1854C18.1898 28.5607 20.0551 29.3333 22 29.3333C23.9449 29.3333 25.8102 28.5607 27.1854 27.1854C28.5607 25.8102 29.3333 23.9449 29.3333 22C29.3333 20.0551 28.5607 18.1898 27.1854 16.8145C25.8102 15.4393 23.9449 14.6667 22 14.6667C20.0551 14.6667 18.1898 15.4393 16.8145 16.8145C15.4393 18.1898 14.6667 20.0551 14.6667 22Z" stroke="#646464" stroke-width="2.75" stroke-linecap="round" stroke-linejoin="round"/>
<path d="M29.3333 22V24.75C29.3333 25.9656 29.8162 27.1314 30.6758 27.9909C31.5353 28.8504 32.7011 29.3333 33.9167 29.3333C35.1322 29.3333 36.298 28.8504 37.1576 27.9909C38.0171 27.1314 38.5 25.9656 38.5 24.75V22C38.5046 18.4545 37.367 15.0019 35.2557 12.1535C33.1445 9.30517 30.1719 7.21261 26.7784 6.18585C23.3848 5.15909 19.7508 5.25273 16.4146 6.4529C13.0785 7.65307 10.2176 9.89594 8.25588 12.8492C6.29414 15.8025 5.33587 19.3092 5.52301 22.8497C5.71016 26.3903 7.03277 29.7764 9.29491 32.5064C11.5571 35.2364 14.6384 37.1652 18.0825 38.007C21.5266 38.8488 25.1503 38.5588 28.4167 37.18" stroke="#646464" stroke-width="2.75" stroke-linecap="round" stroke-linejoin="round"/>
</g>
<defs>
<clipPath id="clip0_951_92">
<rect width="44" height="44" fill="white"/>
</clipPath>
</defs>
</svg>
