<svg width="44" height="44" viewBox="0 0 44 44" fill="none" xmlns="http://www.w3.org/2000/svg">
<g clip-path="url(#clip0_843_95)">
<path d="M5.5 31.1667C5.5 30.6804 5.69315 30.2141 6.03697 29.8703C6.38079 29.5265 6.8471 29.3333 7.33333 29.3333H12.8333C13.3196 29.3333 13.7859 29.5265 14.1297 29.8703C14.4735 30.2141 14.6667 30.6804 14.6667 31.1667V36.6667C14.6667 37.1529 14.4735 37.6192 14.1297 37.963C13.7859 38.3068 13.3196 38.5 12.8333 38.5H7.33333C6.8471 38.5 6.38079 38.3068 6.03697 37.963C5.69315 37.6192 5.5 37.1529 5.5 36.6667V31.1667Z" stroke="#646464" stroke-width="2.75" stroke-linecap="round" stroke-linejoin="round"/>
<path d="M7.33334 22V11C7.33334 10.0275 7.71965 9.09491 8.40729 8.40727C9.09492 7.71964 10.0275 7.33333 11 7.33333H33C33.9725 7.33333 34.9051 7.71964 35.5927 8.40727C36.2804 9.09491 36.6667 10.0275 36.6667 11V33C36.6667 33.9725 36.2804 34.9051 35.5927 35.5927C34.9051 36.2804 33.9725 36.6667 33 36.6667H22" stroke="#646464" stroke-width="2.75" stroke-linecap="round" stroke-linejoin="round"/>
<path d="M22 14.6667H29.3333V22" stroke="#646464" stroke-width="2.75" stroke-linecap="round" stroke-linejoin="round"/>
<path d="M29.3333 14.6667L20.1667 23.8333" stroke="#646464" stroke-width="2.75" stroke-linecap="round" stroke-linejoin="round"/>
</g>
<defs>
<clipPath id="clip0_843_95">
<rect width="44" height="44" fill="white"/>
</clipPath>
</defs>
</svg>
