<svg width="44" height="44" viewBox="0 0 44 44" fill="none" xmlns="http://www.w3.org/2000/svg">
<g clip-path="url(#clip0_930_2)">
<path d="M5.5 22C5.5 24.1668 5.92678 26.3124 6.75599 28.3143C7.58519 30.3161 8.80057 32.1351 10.3327 33.6673C11.8649 35.1994 13.6839 36.4148 15.6857 37.244C17.6876 38.0732 19.8332 38.5 22 38.5C24.1668 38.5 26.3124 38.0732 28.3143 37.244C30.3161 36.4148 32.1351 35.1994 33.6673 33.6673C35.1994 32.1351 36.4148 30.3161 37.244 28.3143C38.0732 26.3124 38.5 24.1668 38.5 22C38.5 19.8332 38.0732 17.6876 37.244 15.6857C36.4148 13.6839 35.1994 11.8649 33.6673 10.3327C32.1351 8.80057 30.3161 7.58519 28.3143 6.75599C26.3124 5.92679 24.1668 5.5 22 5.5C19.8332 5.5 17.6876 5.92679 15.6857 6.75599C13.6839 7.58519 11.8649 8.80057 10.3327 10.3327C8.80057 11.8649 7.58519 13.6839 6.75599 15.6857C5.92678 17.6876 5.5 19.8332 5.5 22Z" stroke="#F7F7F7" stroke-width="2.75" stroke-linecap="round" stroke-linejoin="round"/>
<path d="M16.5 18.3333C16.5 19.792 17.0795 21.191 18.1109 22.2224C19.1424 23.2539 20.5413 23.8333 22 23.8333C23.4587 23.8333 24.8576 23.2539 25.8891 22.2224C26.9205 21.191 27.5 19.792 27.5 18.3333C27.5 16.8746 26.9205 15.4757 25.8891 14.4442C24.8576 13.4128 23.4587 12.8333 22 12.8333C20.5413 12.8333 19.1424 13.4128 18.1109 14.4442C17.0795 15.4757 16.5 16.8746 16.5 18.3333Z" stroke="#F7F7F7" stroke-width="2.75" stroke-linecap="round" stroke-linejoin="round"/>
<path d="M11.308 34.5565C11.7617 33.0462 12.6903 31.7225 13.9558 30.7816C15.2213 29.8407 16.7564 29.3329 18.3333 29.3333H25.6666C27.2456 29.3328 28.7826 29.8419 30.049 30.7849C31.3154 31.728 32.2437 33.0546 32.6956 34.5675" stroke="#F7F7F7" stroke-width="2.75" stroke-linecap="round" stroke-linejoin="round"/>
</g>
<defs>
<clipPath id="clip0_930_2">
<rect width="44" height="44" fill="white"/>
</clipPath>
</defs>
</svg>
