<svg width="44" height="44" viewBox="0 0 44 44" fill="none" xmlns="http://www.w3.org/2000/svg">
<g clip-path="url(#clip0_396_1315)">
<path d="M34.8337 15.9686L25.0565 8.36389C24.1985 7.69639 23.1424 7.33398 22.0553 7.33398C20.9683 7.33398 19.9122 7.69639 19.0542 8.36389L9.27517 15.9686C8.68749 16.4256 8.21201 17.0109 7.88506 17.6797C7.5581 18.3485 7.38832 19.0833 7.38867 19.8277V33.0277C7.38867 34.0002 7.77498 34.9328 8.46261 35.6205C9.15025 36.3081 10.0829 36.6944 11.0553 36.6944H33.0553C34.0278 36.6944 34.9604 36.3081 35.6481 35.6205C36.3357 34.9328 36.722 34.0002 36.722 33.0277V19.8277C36.722 18.3189 36.0253 16.8944 34.8337 15.9686Z" stroke="#9E9E9E" stroke-width="1.83333" stroke-linecap="round" stroke-linejoin="round"/>
<path d="M29.3337 27.5C25.282 29.9438 18.715 29.9438 14.667 27.5" stroke="#9E9E9E" stroke-width="1.83333" stroke-linecap="round" stroke-linejoin="round"/>
</g>
<defs>
<clipPath id="clip0_396_1315">
<rect width="44" height="44" fill="white"/>
</clipPath>
</defs>
</svg>
