<svg width="44" height="44" viewBox="0 0 44 44" fill="none" xmlns="http://www.w3.org/2000/svg">
<g clip-path="url(#clip0_953_111)">
<path d="M5.5 11C5.5 10.0275 5.88631 9.0949 6.57394 8.40727C7.26158 7.71964 8.19421 7.33333 9.16667 7.33333H34.8333C35.8058 7.33333 36.7384 7.71964 37.4261 8.40727C38.1137 9.0949 38.5 10.0275 38.5 11V33C38.5 33.9725 38.1137 34.9051 37.4261 35.5927C36.7384 36.2804 35.8058 36.6667 34.8333 36.6667H9.16667C8.19421 36.6667 7.26158 36.2804 6.57394 35.5927C5.88631 34.9051 5.5 33.9725 5.5 33V11Z" stroke="#646464" stroke-width="2.75" stroke-linecap="round" stroke-linejoin="round"/>
<path d="M12.8333 14.6667H31.1667" stroke="#646464" stroke-width="2.75" stroke-linecap="round" stroke-linejoin="round"/>
<path d="M12.8333 22H31.1667" stroke="#646464" stroke-width="2.75" stroke-linecap="round" stroke-linejoin="round"/>
<path d="M12.8333 29.3333H31.1667" stroke="#646464" stroke-width="2.75" stroke-linecap="round" stroke-linejoin="round"/>
</g>
<defs>
<clipPath id="clip0_953_111">
<rect width="44" height="44" fill="white"/>
</clipPath>
</defs>
</svg>
