<svg width="44" height="44" viewBox="0 0 44 44" fill="none" xmlns="http://www.w3.org/2000/svg">
<g clip-path="url(#clip0_935_97)">
<path d="M14.6667 12.8333C14.6667 14.7783 15.4393 16.6435 16.8145 18.0188C18.1898 19.3941 20.0551 20.1667 22 20.1667C23.9449 20.1667 25.8102 19.3941 27.1854 18.0188C28.5607 16.6435 29.3333 14.7783 29.3333 12.8333C29.3333 10.8884 28.5607 9.02315 27.1854 7.64788C25.8102 6.27262 23.9449 5.5 22 5.5C20.0551 5.5 18.1898 6.27262 16.8145 7.64788C15.4393 9.02315 14.6667 10.8884 14.6667 12.8333Z" stroke="#646464" stroke-width="2.75" stroke-linecap="round" stroke-linejoin="round"/>
<path d="M11 38.5V34.8333C11 32.8884 11.7726 31.0232 13.1479 29.6479C14.5232 28.2726 16.3884 27.5 18.3333 27.5H25.6667C27.6116 27.5 29.4768 28.2726 30.8521 29.6479C32.2274 31.0232 33 32.8884 33 34.8333V38.5" stroke="#646464" stroke-width="2.75" stroke-linecap="round" stroke-linejoin="round"/>
</g>
<defs>
<clipPath id="clip0_935_97">
<rect width="44" height="44" fill="white"/>
</clipPath>
</defs>
</svg>
